PathFileType	4	(X/Y/Z)	c:/Users/goper/Files/vsCode/490R/osim_files/A01/A01_PWS_05.trc
DataRate	CameraRate	NumFrames	NumMarkers	Units                	OrigDataRate	OrigDataStartFrame	OrigNumFrames
120.00	120.00	8	36	mm	120.0	746	1193
                Frame#	Time	Mobility_markerset:LPSIS			Mobility_markerset:LASIS			Mobility_markerset:LTH1			Mobility_markerset:LTH2			Mobility_markerset:LTH3			Mobility_markerset:LTH4			Mobility_markerset:LLFE			Mobility_markerset:LMFE			Mobility_markerset:LSH1			Mobility_markerset:LSH2			Mobility_markerset:LSH3			Mobility_markerset:LSH4			Mobility_markerset:LLMAL			Mobility_markerset:LMMAL			Mobility_markerset:LCAL			Mobility_markerset:LMTP5			Mobility_markerset:LTOE			Mobility_markerset:LMTP1			Mobility_markerset:RPSIS			Mobility_markerset:RASIS			Mobility_markerset:RTH1			Mobility_markerset:RTH2			Mobility_markerset:RTH3			Mobility_markerset:RTH4			Mobility_markerset:RLFE			Mobility_markerset:RMFE			Mobility_markerset:RSH1			Mobility_markerset:RSH2			Mobility_markerset:RSH3			Mobility_markerset:RSH4			Mobility_markerset:RLMAL			Mobility_markerset:RMMAL			Mobility_markerset:RCAL			Mobility_markerset:RMTP1			Mobility_markerset:RTOE			Mobility_markerset:RMTP5		
		X1	Y1	Z1	X2	Y2	Z2	X3	Y3	Z3	X4	Y4	Z4	X5	Y5	Z5	X6	Y6	Z6	X7	Y7	Z7	X8	Y8	Z8	X9	Y9	Z9	X10	Y10	Z10	X11	Y11	Z11	X12	Y12	Z12	X13	Y13	Z13	X14	Y14	Z14	X15	Y15	Z15	X16	Y16	Z16	X17	Y17	Z17	X18	Y18	Z18	X19	Y19	Z19	X20	Y20	Z20	X21	Y21	Z21	X22	Y22	Z22	X23	Y23	Z23	X24	Y24	Z24	X25	Y25	Z25	X26	Y26	Z26	X27	Y27	Z27	X28	Y28	Z28	X29	Y29	Z29	X30	Y30	Z30	X31	Y31	Z31	X32	Y32	Z32	X33	Y33	Z33	X34	Y34	Z34	X35	Y35	Z35	X36	Y36	Z36

746	6.20833	-1882.78931	1056.70374	378.24512	-2125.69775	1032.46655	451.91034	-2008.00977	700.07208	510.23358	-2014.73608	653.90259	501.25458	-2068.37012	704.50861	508.97809	-2066.62500	659.70813	496.39908	-2044.78015	538.69342	463.25656	-2052.31665	546.18781	324.82788	-1980.02161	383.63626	452.24747	-1972.18958	336.25687	454.70221	-2039.77429	368.42535	445.63751	-2023.57373	325.37091	447.28116	-1943.35278	92.71307	429.88052	-1927.47473	93.04504	349.10495	-1858.88477	68.02908	395.85483	-2082.05933	36.47840	435.94711	-2104.17847	57.92155	367.56140	-2084.81641	47.94799	334.65961	-1875.87305	1046.88440	274.94354	-2103.60986	1009.06775	196.77881	-2092.04297	674.22766	124.24703	-2119.07544	639.41223	129.21223	-2146.48730	705.35992	120.13034	-2164.01270	665.85486	124.23669	-2211.80469	526.76764	169.62830	-2234.36743	549.40155	286.60675	-2052.78320	374.19614	179.63383	-2037.50293	332.38959	182.03242	-2107.78198	347.51862	173.05742	-2086.11768	308.95602	176.58498	-1988.76257	159.51355	219.50468	-2025.71851	170.06154	300.15408	-1935.54492	152.69293	276.96594	-2124.79224	64.24727	291.24506	-2156.77954	70.59133	242.53987	-2088.40576	56.79273	184.54266
747	6.21667	-1890.13452	1056.78528	376.85266	-2133.46899	1031.92017	452.54510	-2013.45203	699.94885	509.90744	-2019.49170	653.80066	500.95026	-2073.91309	703.87390	508.85959	-2071.81763	659.07886	496.23486	-2048.99927	538.35077	463.11511	-2056.67749	545.69281	324.69913	-1982.84424	383.78668	452.07166	-1974.22351	336.80164	454.19208	-2042.55676	368.18433	445.66647	-2025.97827	325.23245	447.21463	-1943.71997	93.04085	429.88370	-1927.69580	93.55551	348.87259	-1859.19312	68.81373	395.76474	-2082.12744	36.37558	435.98196	-2104.59229	57.66707	367.25137	-2084.90234	47.86301	334.53461	-1884.59253	1046.98499	273.93610	-2112.73877	1009.48273	197.13593	-2103.04077	675.24115	124.22596	-2130.13843	640.65637	129.69308	-2157.80103	706.84772	121.16709	-2175.44897	667.34125	125.62408	-2223.02417	528.56525	171.05455	-2244.22485	551.11298	287.53430	-2071.59473	367.83640	179.72200	-2058.42603	324.89102	181.75037	-2127.88647	344.09586	173.27859	-2108.03271	304.04782	175.99617	-2018.95093	149.74275	218.83723	-2055.83862	161.73514	299.34607	-1966.60706	139.81511	276.59399	-2160.90820	62.28912	289.26605	-2191.95312	70.02781	239.85512	-2123.75317	52.99879	182.48756
748	6.22500	-1898.35583	1056.52979	375.64438	-2141.19946	1031.14087	453.21085	-2018.76099	699.79193	509.78867	-2024.98389	653.53857	500.78220	-2079.87671	703.23682	508.88727	-2076.94019	658.38776	496.14551	-2053.26660	537.94403	462.96469	-2061.32739	545.20776	324.56616	-1985.83337	383.96429	451.93765	-1977.10474	336.79514	454.38434	-2045.29663	367.73007	445.50464	-2028.34094	324.93042	447.15771	-1944.21106	93.44674	429.93219	-1928.20483	94.02066	348.63354	-1859.49988	69.55068	395.71957	-2082.21167	36.24894	436.07617	-2104.69482	57.74731	367.46887	-2085.00464	47.78174	334.46683	-1893.37927	1047.04919	272.59189	-2122.13501	1009.67218	197.41441	-2113.71411	676.01746	124.39346	-2140.76172	641.61859	130.24449	-2167.95239	707.71204	121.84378	-2185.94312	668.41248	126.71101	-2233.45190	529.90479	172.38596	-2253.40698	552.34540	288.67914	-2090.36035	361.38892	179.80217	-2079.56641	317.87106	181.67223	-2147.92676	340.69162	173.16898	-2130.09448	299.61011	175.88664	-2049.58838	140.42014	218.07216	-2086.54712	153.85622	298.33963	-1998.38953	127.53621	276.36221	-2196.82300	60.46561	286.44226	-2226.80078	70.07102	236.84039	-2159.03564	49.76221	180.16585
749	6.23333	-1906.39636	1056.27026	374.30197	-2148.95288	1030.21069	453.83914	-2023.77527	699.67590	509.88373	-2029.97180	653.32135	500.53284	-2085.03540	702.47980	508.64743	-2082.14478	657.69147	495.98038	-2057.56665	537.39972	462.88919	-2065.82251	544.64734	324.42493	-1988.75476	383.99246	451.86505	-1979.75439	336.94275	454.27170	-2048.06763	367.34760	445.49115	-2030.87122	324.66321	447.13147	-1944.68323	93.86790	429.95404	-1928.60718	94.42731	348.40323	-1859.82874	70.24314	395.58322	-2082.24976	36.06655	436.16696	-2104.76074	57.60159	367.45700	-2084.92603	48.02744	334.87292	-1902.16016	1046.88892	271.15646	-2131.61328	1009.47333	197.66702	-2124.47363	676.83423	125.02756	-2150.65430	642.38116	130.75037	-2177.88184	708.19214	122.99684	-2196.27344	668.99603	128.00325	-2243.43848	530.77521	173.61824	-2261.88354	552.88367	289.87326	-2109.14502	354.93268	179.93340	-2100.72388	311.02216	181.38753	-2167.66211	337.38663	173.02620	-2152.21753	295.38043	175.58946	-2080.61890	131.79660	217.25861	-2117.51172	146.58414	297.11777	-2030.68005	116.20020	275.92163	-2232.40894	59.17691	283.30920	-2261.40918	70.37354	233.54829	-2193.88281	47.21256	177.47418
750	6.24167	-1915.24548	1055.76111	373.23349	-2156.00244	1028.86646	454.27512	-2028.29333	699.57086	510.38251	-2035.31689	652.95892	500.29602	-2090.51343	701.70721	508.57944	-2087.37134	656.98047	495.85864	-2061.84009	536.84900	462.81696	-2070.50732	543.89911	324.47632	-1991.69397	384.05319	451.71957	-1982.29700	337.08954	454.21680	-2050.85352	366.89148	445.41306	-2033.29065	324.33179	447.08661	-1945.11035	94.18210	430.01260	-1928.80151	94.87578	348.09976	-1860.15015	70.97368	395.54764	-2082.33960	35.95477	436.25073	-2104.80322	57.38134	367.51669	-2085.50244	47.77895	334.21875	-1911.21790	1046.66553	269.61838	-2141.18701	1009.08319	197.89064	-2134.12842	677.08063	125.26836	-2160.24414	642.62531	131.41182	-2187.80249	708.41516	124.06251	-2206.06738	669.22083	129.26212	-2252.25366	531.21979	174.58275	-2269.81787	552.84973	291.18015	-2127.98120	348.33469	180.40376	-2122.03125	304.51047	181.20209	-2187.15405	334.38184	172.83221	-2174.06714	291.54227	175.15237	-2111.81055	123.99802	216.23915	-2149.04395	140.17526	296.04794	-2063.53467	105.89793	275.29193	-2268.62988	59.26688	280.44974	-2295.88647	71.64929	230.02180	-2229.17139	45.07015	175.01451
751	6.25000	-1922.97766	1055.65808	371.15417	-2165.38452	1028.16235	455.32797	-2033.88184	699.28088	510.09760	-2040.50891	652.63696	500.17487	-2095.64966	701.05225	508.73730	-2092.56396	656.17847	495.81802	-2066.14404	536.21057	462.72836	-2075.00635	543.19513	324.45786	-1994.64746	384.12631	451.62762	-1984.82434	337.25952	454.07593	-2054.28711	366.11783	445.71530	-2035.48535	324.09335	447.01416	-1945.51062	94.49919	430.07129	-1929.25830	95.32204	347.97058	-1860.47913	71.74854	395.50653	-2082.41309	35.85267	436.33466	-2104.87134	57.22345	367.55310	-2085.58813	47.72907	334.17355	-1920.29004	1046.34692	267.91504	-2150.89355	1008.49689	198.06429	-2143.54590	677.08362	125.67410	-2170.08984	642.41949	132.52359	-2197.33618	708.25354	124.99726	-2215.38086	668.94958	130.47110	-2261.91357	531.17426	175.77440	-2277.00415	552.09747	292.55960	-2145.99219	342.46585	180.51668	-2143.13086	298.60873	180.97198	-2206.50977	331.70679	172.40186	-2195.98584	288.26404	174.70738	-2143.11572	117.37640	214.95036	-2180.33569	134.89491	294.67828	-2096.43359	96.71080	274.43890	-2303.12329	59.61486	276.88345	-2329.92163	74.07046	226.71083	-2263.97949	44.52311	172.23680
752	6.25833	-1931.52490	1054.93994	369.64551	-2172.31372	1026.34363	456.12000	-2039.44165	698.95221	509.81656	-2045.61975	652.23700	499.91116	-2101.34229	700.26910	508.49124	-2097.82397	655.38507	495.65372	-2070.44800	535.54987	462.71344	-2079.71680	542.47528	324.44632	-1997.60681	384.11429	451.54346	-1987.36719	337.42355	453.97714	-2056.46729	365.74255	445.99246	-2037.76123	323.68457	446.90863	-1945.81873	94.83996	430.15176	-1929.70557	95.78002	347.69547	-1860.73035	72.47941	395.39673	-2082.44873	35.74606	436.38452	-2104.83545	57.09779	367.52649	-2085.62036	47.74624	334.11530	-1929.38184	1046.02930	266.11389	-2160.83984	1007.62823	198.18927	-2152.61597	676.67944	126.10049	-2179.20581	641.94757	133.37730	-2206.52075	707.61688	125.85384	-2224.34204	668.29449	131.54485	-2270.53687	530.80585	176.45743	-2283.78564	550.68970	294.11029	-2165.01489	336.57632	180.90526	-2164.20874	293.08871	180.76906	-2226.33130	329.41782	172.15675	-2217.38403	285.39502	174.09499	-2175.19385	110.92718	214.13896	-2211.68945	130.90074	293.39801	-2129.35645	88.74614	273.40555	-2337.98169	62.02329	274.16214	-2363.54834	77.77504	223.86845	-2298.46460	45.21077	169.48456
753	6.26667	-1939.64441	1054.79492	367.60574	-2180.11255	1025.15112	456.64261	-2044.92529	698.68353	509.61475	-2050.85034	651.90582	499.78500	-2106.30566	699.44983	508.06238	-2103.03589	654.61041	495.59525	-2074.70508	534.86078	462.67453	-2084.21509	541.63007	324.38699	-2000.52893	384.10815	451.41510	-1989.71582	337.43259	453.88708	-2059.57837	365.06998	445.54272	-2040.22595	323.37683	446.94437	-1946.15955	95.25645	430.22446	-1930.14868	96.19740	347.44904	-1861.00330	73.22148	395.27292	-2082.55469	35.72995	436.45026	-2104.85913	57.03347	367.49072	-2085.67529	47.76395	334.03000	-1938.71326	1045.66003	264.26862	-2170.71875	1006.48999	198.36795	-2161.35034	675.93188	126.57386	-2187.51611	641.06464	133.87868	-2215.35425	706.60431	126.69749	-2233.04004	667.24268	132.35745	-2278.81958	530.03247	176.88849	-2290.08228	548.90509	295.72537	-2183.08887	331.47284	180.69557	-2184.84448	286.55292	181.45021	-2244.17114	327.56631	171.65672	-2237.64624	283.01041	172.92464	-2205.87671	107.39253	212.44772	-2242.46948	128.04021	291.79276	-2161.90088	82.21149	272.20679	-2371.54321	65.04324	271.03452	-2396.66064	82.75195	220.08466	-2332.38623	47.09212	166.90054
